<?xml version="1.0" encoding="iso-8859-1"?>
<!-- Generator: Adobe Illustrator 23.0.3, SVG Export Plug-In . SVG Version: 6.00 Build 0)  -->
<svg version="1.1" id="Layer_1_1_" xmlns="http://www.w3.org/2000/svg" xmlns:xlink="http://www.w3.org/1999/xlink" x="0px" y="0px"
	 viewBox="0 0 64 64" style="enable-background:new 0 0 64 64;" xml:space="preserve">
<g>
	<path style="fill:#FFED80;" d="M53,35.802L43.516,31l-3.501,10.037l8,19.963L61,55.765L53,35.802z M48,41.732
		c-0.957,0.552-2.18,0.224-2.732-0.732c-0.552-0.957-0.225-2.18,0.732-2.732c0.957-0.552,2.18-0.225,2.732,0.732
		C49.284,39.957,48.957,41.18,48,41.732z"/>
</g>
<g>
	<path style="fill:#E6D573;" d="M56.403,44.294c-1.578,5.647-4.945,10.544-9.454,14.044L48.016,61L61,55.765L56.403,44.294z"/>
</g>
<g>
	<polygon style="fill:#91D6F2;" points="23,10 12,16 23,22 34,16 	"/>
</g>
<g>
	<polygon style="fill:#99E1FF;" points="12,16 12,28 23,34 23,22 	"/>
</g>
<g>
	<polygon style="fill:#B3E9FF;" points="23,23 23,35 34,29 34,17 	"/>
</g>
<g>
	<path d="M21.959,43.975c-0.705-0.035-1.416-0.105-2.114-0.21l0.297-1.978c0.633,0.095,1.276,0.159,1.915,0.19L21.959,43.975z"/>
</g>
<g>
	<path d="M24.083,43.972l-0.102-1.997c0.639-0.033,1.283-0.098,1.914-0.194l0.303,1.977C25.501,43.864,24.789,43.937,24.083,43.972z
		"/>
</g>
<g>
	<path d="M17.76,43.341c-0.684-0.176-1.367-0.389-2.031-0.634l0.693-1.876c0.6,0.222,1.218,0.414,1.836,0.573L17.76,43.341z"/>
</g>
<g>
	<path d="M28.28,43.33l-0.5-1.937c0.616-0.159,1.232-0.353,1.834-0.576l0.695,1.875C29.646,42.939,28.963,43.154,28.28,43.33z"/>
</g>
<g>
	<path d="M13.774,41.87c-0.632-0.309-1.257-0.656-1.86-1.031l1.057-1.698c0.546,0.339,1.112,0.653,1.683,0.933L13.774,41.87z"/>
</g>
<g>
	<path d="M32.265,41.851l-0.885-1.794c0.571-0.282,1.137-0.597,1.681-0.937l1.061,1.696C33.521,41.192,32.896,41.54,32.265,41.851z"
		/>
</g>
<g>
	<path d="M10.169,39.625c-0.561-0.433-1.104-0.899-1.615-1.384l1.377-1.45c0.462,0.438,0.953,0.859,1.461,1.252L10.169,39.625z"/>
</g>
<g>
	<path d="M35.865,39.6l-1.229-1.579c0.507-0.394,0.998-0.816,1.46-1.256l1.379,1.449C36.965,38.699,36.423,39.166,35.865,39.6z"/>
</g>
<g>
	<path d="M7.087,36.704c-0.461-0.533-0.899-1.098-1.306-1.677l1.639-1.147c0.367,0.525,0.765,1.036,1.181,1.519L7.087,36.704z"/>
</g>
<g>
	<path d="M4.652,33.225c-0.346-0.619-0.662-1.261-0.941-1.907l1.836-0.793c0.252,0.584,0.539,1.164,0.852,1.724L4.652,33.225z"/>
</g>
<g>
	<path d="M2.971,29.326c-0.214-0.677-0.395-1.37-0.536-2.059l1.959-0.402c0.128,0.622,0.291,1.248,0.483,1.859L2.971,29.326z"/>
</g>
<g>
	<path d="M2.11,25.166c-0.071-0.698-0.108-1.413-0.109-2.123l2-0.003c0.001,0.643,0.034,1.29,0.1,1.921L2.11,25.166z"/>
</g>
<g>
	<path d="M4.092,21.117l-1.99-0.195c0.068-0.703,0.175-1.411,0.314-2.103l1.961,0.396C4.25,19.841,4.154,20.48,4.092,21.117z"/>
</g>
<g>
	<path d="M41.896,20.999c-0.065-0.635-0.165-1.274-0.295-1.899l1.957-0.408c0.145,0.691,0.255,1.398,0.328,2.101L41.896,20.999z"/>
</g>
<g>
	<path d="M4.854,17.352l-1.91-0.593c0.211-0.679,0.458-1.351,0.735-1.998l1.838,0.788C5.267,16.132,5.044,16.739,4.854,17.352z"/>
</g>
<g>
	<path d="M41.11,17.239c-0.193-0.608-0.42-1.214-0.674-1.8l1.834-0.796c0.281,0.648,0.532,1.318,0.746,1.992L41.11,17.239z"/>
</g>
<g>
	<path d="M6.361,13.818l-1.75-0.969c0.346-0.623,0.724-1.231,1.123-1.807l1.643,1.142C7.016,12.705,6.674,13.254,6.361,13.818z"/>
</g>
<g>
	<path d="M39.581,13.716c-0.312-0.557-0.657-1.104-1.025-1.627l1.637-1.15c0.406,0.578,0.788,1.184,1.133,1.799L39.581,13.716z"/>
</g>
<g>
	<path d="M8.551,10.66l-1.52-1.3c0.46-0.538,0.952-1.058,1.462-1.544l1.381,1.446C9.413,9.703,8.968,10.173,8.551,10.66z"/>
</g>
<g>
	<path d="M37.371,10.571c-0.416-0.482-0.864-0.949-1.33-1.389l1.373-1.455c0.515,0.486,1.01,1.003,1.471,1.536L37.371,10.571z"/>
</g>
<g>
	<path d="M11.331,8.005l-1.229-1.578c0.558-0.434,1.143-0.845,1.74-1.22L12.907,6.9C12.366,7.24,11.836,7.612,11.331,8.005z"/>
</g>
<g>
	<path d="M34.576,7.933c-0.506-0.39-1.038-0.758-1.581-1.095l1.053-1.7c0.601,0.372,1.188,0.779,1.749,1.21L34.576,7.933z"/>
</g>
<g>
	<path d="M14.584,5.96l-0.887-1.792c0.635-0.314,1.291-0.599,1.952-0.846l0.699,1.874C15.752,5.419,15.158,5.676,14.584,5.96z"/>
</g>
<g>
	<path d="M31.311,5.908c-0.575-0.28-1.171-0.533-1.77-0.753l0.688-1.878c0.663,0.243,1.321,0.523,1.957,0.833L31.311,5.908z"/>
</g>
<g>
	<path d="M18.182,4.615l-0.506-1.935c0.684-0.179,1.384-0.324,2.081-0.432l0.307,1.977C19.433,4.323,18.799,4.454,18.182,4.615z"/>
</g>
<g>
	<path d="M27.705,4.586c-0.621-0.158-1.255-0.285-1.886-0.379l0.295-1.979c0.696,0.104,1.397,0.245,2.083,0.419L27.705,4.586z"/>
</g>
<g>
	<path d="M21.979,4.027L21.872,2.03c0.703-0.038,1.421-0.041,2.127-0.007l-0.096,1.998C23.264,3.99,22.616,3.993,21.979,4.027z"/>
</g>
<path style="fill:#383737;" d="M50.021,47.253c0.512-0.206,1.096,0.042,1.301,0.554l1.855-0.748
	c-0.487-1.207-1.677-1.914-2.908-1.864l-0.443-1.098l-1.855,0.748l0.442,1.096c-0.33,0.292-0.601,0.648-0.779,1.065
	c-0.313,0.737-0.321,1.553-0.021,2.296c0.618,1.534,2.37,2.279,3.904,1.66c0.512-0.205,1.095,0.042,1.301,0.554
	c0.206,0.511-0.042,1.095-0.554,1.301c-0.513,0.205-1.096-0.043-1.301-0.554l-1.855,0.748c0.471,1.167,1.599,1.878,2.786,1.878
	c0.041,0,0.082-0.01,0.123-0.012l0.442,1.096l1.855-0.748l-0.443-1.099c0.922-0.818,1.289-2.151,0.802-3.359
	c-0.62-1.535-2.374-2.28-3.904-1.661c-0.514,0.205-1.096-0.043-1.301-0.554C49.262,48.043,49.51,47.459,50.021,47.253z"/>
<path style="fill:#383737;" d="M47.087,61.372c0.1,0.247,0.292,0.443,0.536,0.548c0.125,0.053,0.259,0.08,0.393,0.08
	c0.127,0,0.254-0.024,0.374-0.073l12.984-5.235c0.512-0.206,0.76-0.788,0.555-1.299l-8-19.962c-0.091-0.226-0.26-0.41-0.477-0.52
	l-9.483-4.802c-0.258-0.131-0.56-0.144-0.826-0.035c-0.268,0.107-0.476,0.326-0.57,0.598l-1.396,4l1.889,0.659l1.019-2.921
	l8.128,4.116L59.7,55.21l-11.129,4.487l-7.488-18.685l0.588-1.683l-1.889-0.659l-0.711,2.037c-0.079,0.228-0.074,0.478,0.016,0.702
	L47.087,61.372z"/>
<path style="fill:#383737;" d="M42.463,38.843c0.516,0.329,1.036,0.621,1.554,0.895c-0.053,0.594,0.065,1.208,0.384,1.762
	c0.556,0.961,1.566,1.499,2.604,1.499c0.509,0,1.023-0.129,1.495-0.401c1.433-0.827,1.925-2.665,1.099-4.098c0,0,0,0,0-0.001
	c-0.828-1.433-2.664-1.923-4.099-1.098c-0.247,0.143-0.455,0.324-0.645,0.52c-0.439-0.235-0.879-0.485-1.32-0.766
	c-2.301-1.478-3.964-2.545-4.587-4.472c-0.009-0.028-0.92-2.878,0.847-5.076c0.267-0.337,1.08-1.363,2.401-1.627
	c1.94-0.385,3.962,0.994,4.961,2.558c0.479,0.749,0.764,1.606,0.847,2.549l1.992-0.175c-0.111-1.267-0.499-2.428-1.153-3.451
	c-1.323-2.071-4.085-4.031-7.039-3.442c-2.04,0.408-3.196,1.866-3.583,2.354c-2.438,3.034-1.222,6.786-1.172,6.934
	C37.889,35.906,39.903,37.2,42.463,38.843z M46.5,39.134C46.657,39.043,46.829,39,46.998,39c0.347,0,0.684,0.179,0.868,0.5
	c0.275,0.478,0.111,1.09-0.366,1.365c-0.48,0.277-1.092,0.11-1.366-0.365C45.858,40.022,46.022,39.41,46.5,39.134z"/>
<path style="fill:#383737;" d="M23.479,9.122c-0.297-0.163-0.66-0.163-0.957,0l-11,6C11.2,15.297,11,15.634,11,16v12
	c0,0.366,0.2,0.703,0.521,0.878l11,6c0.046,0.025,0.095,0.039,0.143,0.056c0.028,0.01,0.054,0.025,0.082,0.032
	C22.829,34.988,22.914,35,23,35s0.171-0.012,0.254-0.034c0.028-0.007,0.054-0.022,0.082-0.032c0.048-0.017,0.097-0.031,0.143-0.056
	l11-6C34.8,28.703,35,28.366,35,28V16c0-0.366-0.2-0.703-0.521-0.878L23.479,9.122z M23,11.139L31.912,16L23,20.861L14.088,16
	L23,11.139z M13,17.684l9,4.909v9.722l-9-4.909V17.684z M24,32.315v-9.722l9-4.909v9.722L24,32.315z"/>
</svg>
