<?xml version="1.0" encoding="iso-8859-1"?>
<!-- Generator: Adobe Illustrator 16.0.0, SVG Export Plug-In . SVG Version: 6.00 Build 0)  -->
<!DOCTYPE svg PUBLIC "-//W3C//DTD SVG 1.1//EN" "http://www.w3.org/Graphics/SVG/1.1/DTD/svg11.dtd">
<svg version="1.1" xmlns="http://www.w3.org/2000/svg" xmlns:xlink="http://www.w3.org/1999/xlink" x="0px" y="0px" width="520px"
	 height="520px" viewBox="0 0 520 520" style="enable-background:new 0 0 520 520;" xml:space="preserve">
<g id="_x35_58_x2C__Bag_x2C__Cost_x2C__Investment_x2C__Money">
	<g>
		<g>
			<path style="fill:#A85120;" d="M357.77,440.221c25.371-37.551,39.36-78.61,39.36-121.641c0-27.939-5.88-55.03-16.93-80.84H134.8
				c-11.05,25.81-16.93,52.9-16.93,80.84c0,43.54,14.32,85.061,40.26,122.97c-6.99,4.671-11.5,11.96-11.5,20.16
				c0,14.11,13.32,25.55,29.75,25.55c16.44,0,29.76-11.439,29.76-25.55h105.81c0,14.11,13.319,25.55,29.75,25.55
				c16.44,0,29.76-11.439,29.76-25.55C371.46,452.69,366,444.76,357.77,440.221z"/>
		</g>
		<g>
			<path style="fill:#07CC66;" d="M447.5,142.74c11.05,0,20,8.95,20,20s-8.95,20-20,20s-20-8.95-20-20S436.45,142.74,447.5,142.74z"
				/>
		</g>
		<g>
			<path style="fill:#07CC66;" d="M77.5,82.74c13.81,0,25,11.19,25,25s-11.19,25-25,25s-25-11.19-25-25S63.69,82.74,77.5,82.74z"/>
		</g>
		<g>
			<circle style="fill:#FFDC67;" cx="257.5" cy="354.52" r="48.85"/>
		</g>
		<g>
			<path style="fill:#C86D36;" d="M396.641,203.6c3.619,3.62,5.859,8.62,5.859,14.14c0,11.05-8.95,20-20,20h-2.3H134.8h-2.3
				c-5.52,0-10.52-2.24-14.14-5.86c-3.62-3.62-5.86-8.62-5.86-14.14c0-11.05,8.95-20,20-20h15h213.21h21.79
				C388.02,197.74,393.02,199.98,396.641,203.6z"/>
		</g>
		<g>
			<path style="fill:#EAB883;" d="M233.76,138.67c0.11-0.18,0.23-0.35,0.35-0.53c14.85,2.26,26.31,14.14,28.39,29.12
				c5.04-5,12.34-8.09,20-8.09c7.391,0,14.09,2.88,19.08,7.57c6.29-7.26,15.561-11.86,25.92-11.86c18.939,0,34.29,15.35,34.29,34.29
				c0,2.96-0.38,5.83-1.08,8.57H147.5c0-16.57,13.43-30,30-30c6.39,0,12.31,2,17.17,5.41c-0.01-0.38-0.03-0.75-0.03-1.12
				c0-18.94,15.35-34.29,34.29-34.29c1.64,0,3.26,0.12,4.83,0.34V138.67z"/>
		</g>
		<g>
			<path style="fill:#88C116;" d="M261.641,109.38c-3.351-16.38,6.639-36.13,25.09-46.64c35.6-20.18,70.209-6.31,92.029-6.96
				c-33.21,14.63-28.84,53.25-58.859,70.3c-21.51,12.57-46.291,8.22-55.641-9.19C263.04,114.51,262.17,111.99,261.641,109.38z"/>
		</g>
		<g>
			<path style="fill:#88C116;" d="M218.98,88.47c-0.32,1.04-0.73,2.05-1.23,3.02c-6.14,11.44-22.43,14.3-36.56,6.04
				c-19.73-11.2-16.86-36.59-38.69-46.2c14.34,0.42,37.09-8.69,60.49,4.57C215.84,63.23,222.44,77.37,218.98,88.47z"/>
		</g>
		<g>
			<circle cx="450" cy="80.24" r="7.5"/>
		</g>
		<g>
			<circle cx="445" cy="265.24" r="7.5"/>
		</g>
		<g>
			<circle cx="425" cy="435.24" r="7.5"/>
		</g>
		<g>
			<circle cx="390" cy="135.24" r="7.5"/>
		</g>
		<g>
			<circle cx="265" cy="35.24" r="7.5"/>
		</g>
		<g>
			<path d="M256.39,347.38v-8.779c-3.33,0.279-4.99,1.67-4.99,4.14c0,1.19,0.41,2.13,1.24,2.82
				C253.48,346.25,254.73,346.86,256.39,347.38z M259.75,360.66v8.57c3.66-0.15,5.5-1.41,5.5-3.79c0-1.23-0.5-2.2-1.5-2.891
				C262.75,361.86,261.41,361.23,259.75,360.66z M259.75,348.38l2.279,0.57c2.431,0.67,4.621,1.39,6.57,2.18
				c1.95,0.78,3.61,1.761,4.961,2.931c1.359,1.16,2.41,2.58,3.149,4.239c0.729,1.671,1.101,3.671,1.101,6
				c0,2.71-0.471,5.021-1.431,6.931c-0.95,1.899-2.22,3.46-3.819,4.67c-1.59,1.22-3.42,2.13-5.49,2.75s-4.25,0.979-6.541,1.07v8.289
				h-4.919v-8.359c-3.29-0.28-6.54-0.95-9.75-2c-3.21-1.04-6.1-2.42-8.67-4.141l5.14-10.21c0.19,0.24,0.7,0.631,1.53,1.181
				c0.84,0.55,1.89,1.12,3.18,1.71c1.29,0.6,2.74,1.17,4.36,1.72c1.61,0.54,3.28,0.94,4.99,1.18v-9.5l-3.42-1
				c-2.34-0.71-4.36-1.489-6.07-2.319c-1.72-0.83-3.13-1.8-4.25-2.891c-1.12-1.1-1.95-2.359-2.5-3.79
				c-0.55-1.42-0.82-3.09-0.82-4.989c0-2.48,0.43-4.681,1.28-6.61c0.86-1.93,2.01-3.58,3.47-4.96c1.45-1.38,3.16-2.46,5.14-3.25
				c1.97-0.78,4.1-1.29,6.39-1.53v-7.21h4.919v7.21c3.101,0.28,6,0.971,8.721,2.07c2.71,1.09,5.061,2.21,7.061,3.35l-5.141,9.71
				c-0.141-0.189-0.561-0.5-1.25-0.93c-0.689-0.42-1.57-0.89-2.641-1.39c-1.069-0.5-2.26-0.971-3.569-1.431
				c-1.31-0.449-2.63-0.77-3.96-0.96V348.38z"/>
		</g>
		<g>
			<circle cx="145" cy="130.24" r="7.5"/>
		</g>
		<g>
			<circle cx="95" cy="435.24" r="7.5"/>
		</g>
		<g>
			<circle cx="77.5" cy="280.24" r="7.5"/>
		</g>
		<g>
			<circle cx="65" cy="45.24" r="7.5"/>
		</g>
		<g>
			<path d="M257.5,408.37c-29.693,0-53.85-24.157-53.85-53.85c0-29.693,24.157-53.851,53.85-53.851
				c29.693,0,53.85,24.157,53.85,53.851C311.35,384.213,287.193,408.37,257.5,408.37z M257.5,310.67
				c-24.179,0-43.85,19.671-43.85,43.851c0,24.179,19.671,43.85,43.85,43.85c24.18,0,43.85-19.671,43.85-43.85
				C301.35,330.341,281.68,310.67,257.5,310.67z"/>
		</g>
		<g>
			<path d="M257.5,433.37c-43.478,0-78.85-35.372-78.85-78.85c0-2.762,2.239-5,5-5s5,2.238,5,5c0,37.964,30.886,68.85,68.85,68.85
				s68.85-30.886,68.85-68.85c0-2.762,2.239-5,5-5c2.762,0,5,2.238,5,5C336.35,397.998,300.979,433.37,257.5,433.37z"/>
		</g>
		<g>
			<path d="M345.055,403.051c-0.87,0-1.752-0.228-2.555-0.706c-2.371-1.413-3.148-4.482-1.734-6.854
				c10.996-18.452,17.946-38.121,20.658-58.461c2.215-16.564,1.61-33.489-1.795-50.307c-0.548-2.706,1.202-5.345,3.908-5.893
				c2.707-0.552,5.346,1.202,5.893,3.908c3.627,17.909,4.268,35.947,1.906,53.614c-2.892,21.688-10.287,42.635-21.98,62.257
				C348.42,402.179,346.759,403.051,345.055,403.051z"/>
		</g>
		<g>
			<path d="M341.7,492.26c-17.225,0-31.563-11.075-34.284-25.55h-96.741c-2.723,14.475-17.065,25.55-34.295,25.55
				c-19.161,0-34.75-13.704-34.75-30.55c0-8.056,3.502-15.577,9.756-21.232c-25.562-38.744-38.516-79.73-38.516-121.897
				c0-28.083,5.832-55.943,17.333-82.808c1.087-2.539,4.024-3.715,6.564-2.629c2.539,1.087,3.715,4.026,2.629,6.564
				c-10.966,25.614-16.526,52.15-16.526,78.872c0,41.529,13.251,81.952,39.386,120.146c0.754,1.102,1.036,2.46,0.783,3.771
				s-1.021,2.467-2.131,3.209c-5.896,3.94-9.278,9.773-9.278,16.003c0,11.331,11.103,20.55,24.75,20.55
				c13.653,0,24.76-9.219,24.76-20.55c0-2.762,2.239-5,5-5h105.81c2.761,0,5,2.238,5,5c0,11.331,11.103,20.55,24.75,20.55
				c13.653,0,24.76-9.219,24.76-20.55c0-6.879-4.151-13.276-11.104-17.111c-1.23-0.678-2.117-1.842-2.446-3.207
				s-0.068-2.807,0.718-3.97c25.549-37.815,38.503-77.8,38.503-118.842c0-26.722-5.56-53.258-16.526-78.872
				c-1.086-2.539,0.09-5.478,2.629-6.564c2.539-1.088,5.477,0.09,6.564,2.629c11.502,26.864,17.333,54.725,17.333,82.808
				c0,41.544-12.587,81.967-37.423,120.223c7.441,5.743,11.753,14.004,11.753,22.907C376.46,478.556,360.867,492.26,341.7,492.26z"
				/>
		</g>
		<g>
			<path d="M382.5,242.74h-250c-6.674,0-12.952-2.601-17.675-7.324c-4.724-4.724-7.325-11.001-7.325-17.676
				c0-13.785,11.215-25,25-25h250c6.674,0,12.951,2.601,17.676,7.324c4.723,4.724,7.324,11.001,7.324,17.676
				C407.5,231.525,396.285,242.74,382.5,242.74z M132.5,202.74c-8.271,0-15,6.729-15,15c0,4.003,1.561,7.77,4.396,10.605
				c2.834,2.834,6.601,4.395,10.604,4.395h250c8.271,0,15-6.729,15-15c0-4.003-1.561-7.77-4.396-10.605
				c-2.835-2.834-6.601-4.395-10.604-4.395H132.5z"/>
		</g>
		<g>
			<path d="M360.713,202.741c-0.409,0-0.825-0.05-1.24-0.157c-2.676-0.684-4.291-3.407-3.607-6.082
				c0.613-2.4,0.925-4.868,0.925-7.332c0-16.15-13.14-29.29-29.29-29.29c-8.49,0-16.561,3.694-22.141,10.134
				c-0.892,1.029-2.164,1.65-3.523,1.72c-1.356,0.072-2.688-0.417-3.68-1.35c-4.264-4.007-9.824-6.213-15.656-6.213
				c-6.127,0-12.288,2.482-16.479,6.64c-1.346,1.334-3.328,1.792-5.121,1.188c-1.795-0.606-3.092-2.174-3.354-4.05
				c-1.797-12.943-11.518-22.936-24.189-24.865c-0.09-0.014-0.179-0.03-0.268-0.048l-0.022-0.003v0
				c-1.382-0.193-2.774-0.292-4.137-0.292c-16.15,0-29.29,13.14-29.29,29.29c0,0.183,0.007,0.366,0.014,0.551l0.014,0.44
				c0.048,1.888-0.971,3.642-2.635,4.535c-1.665,0.893-3.689,0.771-5.235-0.313c-4.198-2.946-9.142-4.503-14.298-4.503
				c-13.785,0-25,11.215-25,25c0,2.761-2.239,5-5,5s-5-2.239-5-5c0-19.299,15.701-35,35-35c4.415,0,8.72,0.816,12.746,2.395
				c3.269-18.388,19.372-32.395,38.684-32.395c1.825,0,3.683,0.13,5.522,0.388c0.043,0.006,0.086,0.013,0.129,0.02
				c0.146,0.021,0.292,0.044,0.437,0.073c14.324,2.239,25.824,12.087,30.531,25.481c5.07-2.928,10.949-4.532,16.951-4.532
				c6.739,0,13.225,2.047,18.689,5.837c7.184-6.485,16.538-10.127,26.311-10.127c21.664,0,39.29,17.625,39.29,39.29
				c0,3.299-0.415,6.599-1.235,9.808C364.977,201.238,362.943,202.741,360.713,202.741z"/>
		</g>
		<g>
			<path d="M294.434,138.295c-15.249,0-28.176-7.118-34.578-19.04c-1.457-2.839-2.49-5.798-3.115-8.881
				c-3.853-18.839,7.719-40.703,27.516-51.979c13.847-7.849,29.041-11.663,46.46-11.663c10.161,0,19.739,1.255,28.19,2.362
				c7.304,0.957,14.113,1.851,19.705,1.688c2.395-0.104,4.498,1.562,5.025,3.895s-0.672,4.714-2.861,5.678
				c-15.723,6.926-22.227,19.978-29.113,33.795c-6.713,13.468-13.654,27.395-29.293,36.277
				C313.58,135.564,303.902,138.295,294.434,138.295z M330.716,56.733c-15.862,0-29.055,3.291-41.521,10.357
				c-16.137,9.192-25.669,26.559-22.656,41.289c0.445,2.195,1.176,4.29,2.17,6.231c4.587,8.538,14.221,13.686,25.725,13.686
				c7.697,0,15.631-2.259,22.943-6.532c13.041-7.407,19.013-19.388,25.334-32.073c5.309-10.65,10.746-21.56,20.469-29.965
				c-1.824-0.224-3.685-0.467-5.572-0.715C349.46,57.943,340.225,56.733,330.716,56.733z"/>
		</g>
		<g>
			<path d="M197.921,107.271c-6.526,0-13.184-1.875-19.254-5.424c-10.678-6.061-15.57-15.875-19.886-24.534
				c-4.576-9.179-8.527-17.106-18.295-21.407c-2.189-0.964-3.389-3.344-2.863-5.677c0.527-2.334,2.618-3.97,5.024-3.897
				c3.547,0.104,7.941-0.478,12.664-1.097c5.61-0.735,11.97-1.569,18.765-1.569c11.754,0,22.019,2.579,31.38,7.884
				c14.657,8.361,22.518,24.87,18.298,38.408c-0.401,1.306-0.928,2.598-1.559,3.823
				C217.646,102.255,208.587,107.271,197.921,107.271z M156.487,55.167c5.11,5.381,8.299,11.777,11.244,17.685
				c4.036,8.096,7.848,15.743,15.928,20.33c4.596,2.686,9.509,4.089,14.263,4.089c6.92,0,12.686-3.045,15.423-8.146
				c0.322-0.625,0.623-1.365,0.856-2.125c2.814-9.029-3.2-20.774-13.688-26.757c-7.915-4.485-16.319-6.577-26.438-6.577
				c-6.142,0-11.898,0.754-17.465,1.484C156.569,55.156,156.528,55.162,156.487,55.167z"/>
		</g>
		<g>
			<path d="M233.754,143.666c-0.891,0-1.793-0.238-2.608-0.738c-2.352-1.444-3.092-4.515-1.65-6.868
				c0.116-0.189,0.237-0.372,0.362-0.557l0.086-0.127c7.909-12.138,17.619-22.275,28.837-30.096
				c17.619-12.28,32.744-14.438,33.379-14.523c2.732-0.372,5.255,1.549,5.625,4.286c0.369,2.732-1.543,5.246-4.271,5.623
				c-0.189,0.027-13.538,2.032-29.015,12.819c-10.158,7.081-18.973,16.296-26.2,27.387l-0.275,0.412
				C237.079,142.818,235.436,143.666,233.754,143.666z"/>
		</g>
		<g>
			<path d="M233.757,113.672c-2.189,0-4.199-1.45-4.814-3.662c-1.819-6.544-6.181-12.446-12.965-17.542
				c-10.209-7.671-22.122-10.686-22.241-10.715c-2.68-0.665-4.314-3.376-3.649-6.057c0.665-2.681,3.375-4.314,6.057-3.649
				c0.567,0.141,14.023,3.547,25.84,12.425c8.587,6.45,14.17,14.141,16.594,22.858c0.74,2.661-0.818,5.417-3.478,6.157
				C234.651,113.612,234.2,113.672,233.757,113.672z"/>
		</g>
		<g>
			<path d="M233.76,168.33c-2.761,0-5-2.239-5-5V48.67c0-2.761,2.239-5,5-5s5,2.239,5,5v114.66
				C238.76,166.091,236.521,168.33,233.76,168.33z"/>
		</g>
		<g>
			<path d="M77.5,137.74c-16.542,0-30-13.458-30-30s13.458-30,30-30s30,13.458,30,30S94.042,137.74,77.5,137.74z M77.5,87.74
				c-11.028,0-20,8.972-20,20s8.972,20,20,20s20-8.972,20-20S88.528,87.74,77.5,87.74z"/>
		</g>
		<g>
			<path d="M447.5,187.74c-13.785,0-25-11.215-25-25s11.215-25,25-25s25,11.215,25,25S461.285,187.74,447.5,187.74z M447.5,147.74
				c-8.271,0-15,6.729-15,15s6.729,15,15,15s15-6.729,15-15S455.771,147.74,447.5,147.74z"/>
		</g>
	</g>
</g>
<g id="Layer_1">
</g>
</svg>
