<?xml version="1.0" encoding="UTF-8" standalone="no"?> <svg width="64" height="64" viewBox="0 0 64 64" fill="none" xmlns="http://www.w3.org/2000/svg">
<path d="M33 20H31V35H33V20Z" fill="#00B39D"/>
<path d="M29 55.17C28.9989 55.9202 28.7004 56.6395 28.1699 57.17C27.6394 57.7004 26.9202 57.9989 26.17 58H5.83C5.27017 58.0005 4.72279 57.8349 4.25719 57.524C3.79158 57.2132 3.42871 56.7712 3.21454 56.2539C3.00036 55.7367 2.94452 55.1675 3.05408 54.6185C3.16364 54.0695 3.43369 53.5654 3.83 53.17L5.17 51.83C5.70077 51.2997 5.9993 50.5803 6 49.83V48C6 45.8783 6.84285 43.8434 8.34314 42.3432C9.84344 40.8429 11.8783 40 14 40H18C19.2808 39.9985 20.5431 40.3058 21.6798 40.896C22.8166 41.4861 23.7943 42.3416 24.53 43.39C25.4909 44.7347 26.0051 46.3473 26 48V49.83C26.0007 50.5803 26.2992 51.2997 26.83 51.83L28.17 53.17C28.7008 53.7003 28.9993 54.4197 29 55.17V55.17Z" fill="#3D9AE2"/>
<path d="M29 55.17C28.999 55.9203 28.7005 56.6395 28.17 57.17C27.6395 57.7005 26.9202 57.999 26.17 58H16.01C16.0493 57.31 16.3412 56.6586 16.83 56.17L18.17 54.83C18.7008 54.2997 18.9993 53.5803 19 52.83V51C18.9998 49.3101 19.5348 47.6634 20.5283 46.2963C21.5217 44.9292 22.9226 43.9118 24.53 43.39C25.4909 44.7347 26.0051 46.3473 26 48V49.83C26.0007 50.5803 26.2992 51.2997 26.83 51.83L28.17 53.17C28.7008 53.7003 28.9993 54.4197 29 55.17V55.17Z" fill="#1E81CE"/>
<path d="M18 36C18.5299 36.0016 19.0377 36.2128 19.4125 36.5875C19.7872 36.9623 19.9984 37.4701 20 38C19.9961 38.5292 19.7841 39.0356 19.4099 39.4099C19.0357 39.7841 18.5292 39.9961 18 40H14C13.4701 39.9984 12.9623 39.7872 12.5875 39.4125C12.2128 39.0377 12.0016 38.5299 12 38C12.0039 37.4708 12.2159 36.9644 12.5901 36.5901C12.9643 36.2159 13.4708 36.0039 14 36H18Z" fill="#1E81CE"/>
<path d="M51.41 36.59C51.598 36.7734 51.7471 36.9927 51.8485 37.235C51.9499 37.4772 52.0014 37.7374 52 38C51.9984 38.53 51.7872 39.0378 51.4125 39.4125C51.0377 39.7872 50.5299 39.9984 50 40H46C45.4708 39.9961 44.9644 39.7841 44.5901 39.4099C44.2159 39.0357 44.0039 38.5292 44 38C44.0016 37.4701 44.2128 36.9623 44.5875 36.5876C44.9623 36.2128 45.4701 36.0016 46 36H50C50.2626 35.9986 50.5228 36.0502 50.765 36.1515C51.0073 36.2529 51.2266 36.402 51.41 36.59Z" fill="#1E81CE"/>
<path d="M20 17H18V24H14V17H12L16 13L20 17Z" fill="#FF9811"/>
<path d="M52 17H50V24H46V17H44L48 13L52 17Z" fill="#FF9811"/>
<path d="M13 30C15 30 14 31 16 31C18 31 17 30 19 30C21 30 20 31 22 31L18 36H14L10 31C12 31 11 30 13 30Z" fill="#3D9AE2"/>
<path d="M51 30C53 30 52 31 54 31L50 36H46L42 31C44 31 43 30 45 30C47 30 46 31 48 31C50 31 49 30 51 30Z" fill="#3D9AE2"/>
<path d="M61 55.17C60.9989 55.9202 60.7004 56.6395 60.1699 57.17C59.6394 57.7004 58.9202 57.9989 58.17 58H37.83C37.2702 58.0005 36.7228 57.8349 36.2572 57.524C35.7916 57.2132 35.4287 56.7712 35.2145 56.2539C35.0004 55.7367 34.9445 55.1675 35.0541 54.6185C35.1636 54.0695 35.4337 53.5654 35.83 53.17L37.17 51.83C37.7008 51.2997 37.9993 50.5803 38 49.83V48C37.9949 46.3473 38.5091 44.7347 39.47 43.39C40.2057 42.3416 41.1834 41.4861 42.3202 40.896C43.4569 40.3058 44.7192 39.9985 46 40H50C52.1217 40 54.1566 40.8429 55.6569 42.3432C57.1571 43.8434 58 45.8783 58 48V49.83C58.0007 50.5803 58.2992 51.2997 58.83 51.83L60.17 53.17C60.7008 53.7003 60.9993 54.4197 61 55.17V55.17Z" fill="#3D9AE2"/>
<path d="M32 21C36.9706 21 41 16.9706 41 12C41 7.02944 36.9706 3 32 3C27.0294 3 23 7.02944 23 12C23 16.9706 27.0294 21 32 21Z" fill="#FFD422"/>
<path d="M31.32 27.24L32 29L30.13 29.29C28.7742 29.5062 27.3853 29.2496 26.1964 28.5631C25.0074 27.8767 24.0907 26.8022 23.6 25.52L22.92 23.76L24.79 23.46C26.1468 23.2458 27.5361 23.5045 28.7249 24.1926C29.9138 24.8808 30.83 25.9567 31.32 27.24V27.24Z" fill="#00CCB3"/>
<path d="M41.08 23.76L40.4 25.52C39.9093 26.8022 38.9926 27.8767 37.8036 28.5631C36.6146 29.2496 35.2258 29.5062 33.87 29.29L32 29L32.68 27.24C33.17 25.9567 34.0862 24.8808 35.275 24.1926C36.4639 23.5045 37.8531 23.2458 39.21 23.46L41.08 23.76Z" fill="#00CCB3"/>
<path d="M36.41 39.59C36.598 39.7734 36.7471 39.9927 36.8485 40.235C36.9499 40.4772 37.0014 40.7374 37 41C36.9984 41.53 36.7872 42.0378 36.4125 42.4125C36.0377 42.7872 35.5299 42.9984 35 43H29C28.4708 42.9961 27.9643 42.7841 27.5901 42.4099C27.2159 42.0357 27.0039 41.5292 27 41C27.0016 40.4701 27.2128 39.9623 27.5875 39.5876C27.9623 39.2128 28.4701 39.0016 29 39H35C35.2626 38.9986 35.5228 39.0502 35.765 39.1515C36.0073 39.2529 36.2266 39.402 36.41 39.59V39.59Z" fill="#3D9AE2"/>
<path d="M36 33C38 33 37 34 39 34L35 39H29L25 34C27 34 26 33 28 33C30 33 30 34 32 34C34 34 34 33 36 33Z" fill="#5AAAE7"/>
<path d="M47.99 58H37.83C37.2702 58.0005 36.7228 57.8349 36.2572 57.524C35.7916 57.2132 35.4287 56.7712 35.2145 56.2539C35.0004 55.7367 34.9445 55.1675 35.0541 54.6185C35.1636 54.0695 35.4337 53.5654 35.83 53.17L37.17 51.83C37.7008 51.2997 37.9993 50.5803 38 49.83V48C37.9949 46.3473 38.5091 44.7347 39.47 43.39C41.0774 43.9118 42.4783 44.9292 43.4717 46.2963C44.4652 47.6634 45.0002 49.3101 45 51V52.83C45.0007 53.5803 45.2992 54.2997 45.83 54.83L47.17 56.17C47.6588 56.6586 47.9507 57.31 47.99 58V58Z" fill="#1E81CE"/>
<path d="M45.17 56.17C45.5663 56.5654 45.8364 57.0695 45.9459 57.6185C46.0555 58.1675 45.9996 58.7367 45.7855 59.2539C45.5713 59.7712 45.2084 60.2132 44.7428 60.524C44.2772 60.8349 43.7298 61.0005 43.17 61H20.83C20.2702 61.0005 19.7228 60.8349 19.2572 60.524C18.7916 60.2132 18.4287 59.7712 18.2145 59.2539C18.0004 58.7367 17.9445 58.1675 18.0541 57.6185C18.1636 57.0695 18.4337 56.5654 18.83 56.17L20.17 54.83C20.7008 54.2997 20.9993 53.5803 21 52.83V51C21 48.8783 21.8429 46.8434 23.3431 45.3431C24.8434 43.8429 26.8783 43 29 43H35C37.1217 43 39.1566 43.8429 40.6569 45.3431C42.1571 46.8434 43 48.8783 43 51V52.83C43.0007 53.5803 43.2992 54.2997 43.83 54.83L45.17 56.17Z" fill="#5AAAE7"/>
<path d="M33 11H31C30.7348 11 30.4804 10.8946 30.2929 10.7071C30.1054 10.5196 30 10.2652 30 10C30 9.73478 30.1054 9.48043 30.2929 9.29289C30.4804 9.10536 30.7348 9 31 9H33C33.2652 9 33.5196 9.10536 33.7071 9.29289C33.8946 9.48043 34 9.73478 34 10H36C36 9.20435 35.6839 8.44129 35.1213 7.87868C34.5587 7.31607 33.7956 7 33 7V6H31V7C30.2044 7 29.4413 7.31607 28.8787 7.87868C28.3161 8.44129 28 9.20435 28 10C28 10.7956 28.3161 11.5587 28.8787 12.1213C29.4413 12.6839 30.2044 13 31 13H33C33.2652 13 33.5196 13.1054 33.7071 13.2929C33.8946 13.4804 34 13.7348 34 14C34 14.2652 33.8946 14.5196 33.7071 14.7071C33.5196 14.8946 33.2652 15 33 15H31C30.7348 15 30.4804 14.8946 30.2929 14.7071C30.1054 14.5196 30 14.2652 30 14H28C28 14.7956 28.3161 15.5587 28.8787 16.1213C29.4413 16.6839 30.2044 17 31 17V18H33V17C33.7956 17 34.5587 16.6839 35.1213 16.1213C35.6839 15.5587 36 14.7956 36 14C36 13.2044 35.6839 12.4413 35.1213 11.8787C34.5587 11.3161 33.7956 11 33 11V11Z" fill="#FF5023"/>
</svg>
